# xmcd
#
# Track frame offsets: 
#        150
#        16138
#        27092
#        40958
#        52486
#        72050
#        98586
#        112084
#        128185
#        146854
#        163170
#        183613
#        194767
#        203473
#        212361
#        219950
#        230211
#        241862
#        259560
#        271234
#        281127
#        297083
#        311562
#        327583
#
# Disc length: 4602 seconds
#
# Revision: 0
# Processed by: cddbd v1.5.2PL0 Copyright (c) Steve Scherf et al.
# Submitted via: ExactAudioCopy v0.99pb4
#
DISCID=7411f818
DTITLE=THE MATADORS - The Matadors
DYEAR=2006
DGENRE=Rythm and Blues
TTITLE0=Get Down from the Tree
TTITLE1=I Want To See You
TTITLE2=My Girl
TTITLE3=Bad Bad Bird
TTITLE4=I'm So Lonesome
TTITLE5=Extraction
TTITLE6=Shotgun
TTITLE7=Hate Everything Except of Hatter
TTITLE8=I Feel So Lonely
TTITLE9=I Must Hope
TTITLE10=It's All Over Now, Baby Blue
TTITLE11=You'll Be Mine
TTITLE12=Farmer John
TTITLE13=Sing a Song of Sixpence
TTITLE14=Locomotion With You
TTITLE15=Pay Pay Twist
TTITLE16=Snad Jednou Ti Dám
TTITLE17=Malej Zvon, Co Mám
TTITLE18=Don't Bother Me
TTITLE19=Old Mother Hubbard
TTITLE20=Get Down from the Tree
TTITLE21=I Think It's Gonna Work Out Fine
TTITLE22=Hate Everything Except of Hatter (Czech vocal)
TTITLE23=Indolence
EXTD=
EXTT0=
EXTT1=
EXTT2=
EXTT3=
EXTT4=
EXTT5=
EXTT6=
EXTT7=
EXTT8=
EXTT9=
EXTT10=
EXTT11=
EXTT12=
EXTT13=
EXTT14=
EXTT15=
EXTT16=
EXTT17=
EXTT18=
EXTT19=
EXTT20=
EXTT21=
EXTT22=
EXTT23=
PLAYORDER=
